<svg width="253" height="157" viewBox="0 0 253 157" fill="none" xmlns="http://www.w3.org/2000/svg">
<mask id="path-1-inside-1_442_110" fill="white">
<path d="M235 0C244.941 6.44258e-07 253 8.05888 253 18V100C253 105.523 248.523 110 243 110H221C214.925 110 210 114.925 210 121V147C210 152.523 205.523 157 200 157H18C8.05888 157 1.44967e-07 148.941 0 139V18C0 8.05887 8.05887 0 18 0H235Z"/>
</mask>
<path d="M235 0C244.941 6.44258e-07 253 8.05888 253 18V100C253 105.523 248.523 110 243 110H221C214.925 110 210 114.925 210 121V147C210 152.523 205.523 157 200 157H18C8.05888 157 1.44967e-07 148.941 0 139V18C0 8.05887 8.05887 0 18 0H235Z" fill="#EFEFEF"/>
<path d="M235 0L235 -1H235V0ZM253 18L254 18L253 18ZM221 110L221 109L221 110ZM18 157L18 158H18V157ZM0 139L-1 139L0 139ZM235 0L235 1C244.389 1 252 8.61116 252 18L253 18L254 18C254 7.50659 245.493 -0.999999 235 -1L235 0ZM253 18H252V100H253H254V18H253ZM243 110V109H221V110V111H243V110ZM221 110L221 109C214.373 109 209 114.373 209 121H210H211C211 115.477 215.477 111 221 111L221 110ZM210 121H209V147H210H211V121H210ZM200 157V156H18V157V158H200V157ZM18 157L18 156C8.61116 156 1 148.389 1 139L0 139L-1 139C-1 149.493 7.50659 158 18 158L18 157ZM0 139H1V18H0H-1V139H0ZM0 18H1C1 8.61116 8.61116 1 18 1V0V-1C7.50659 -1 -1 7.50659 -1 18H0ZM18 0V1H235V0V-1H18V0ZM210 147H209C209 151.971 204.971 156 200 156V157V158C206.075 158 211 153.075 211 147H210ZM253 100H252C252 104.971 247.971 109 243 109V110V111C249.075 111 254 106.075 254 100H253Z" fill="#E7E7E7" mask="url(#path-1-inside-1_442_110)"/>
</svg>
